HIERARCHY
ROOT Hips
{
  OFFSET 0.000000 0.000000 0.000000
  CHANNELS 6 Xposition Yposition Zposition Zrotation Yrotation Xrotation
  JOINT Spine
  {
    OFFSET -0.000883 2.120903 -0.028059
    CHANNELS 3 Zrotation Yrotation Xrotation
    JOINT Spine1
    {
      OFFSET -0.002865 2.096658 0.129739
      CHANNELS 3 Zrotation Yrotation Xrotation
      JOINT Spine2
      {
        OFFSET -0.000072 2.101496 0.140380
        CHANNELS 3 Zrotation Yrotation Xrotation
        JOINT Neck
        {
          OFFSET 0.073278 1.835262 0.072900
          CHANNELS 3 Zrotation Yrotation Xrotation
          JOINT Head
          {
            OFFSET -0.033980 1.851628 -0.175733
            CHANNELS 3 Zrotation Yrotation Xrotation
            End Site
            {
              OFFSET 0 0 0
            }
          }
        }
        JOINT LeftShoulder
        {
          OFFSET 3.021134 1.180177 0.406022
          CHANNELS 3 Zrotation Yrotation Xrotation
          JOINT LeftArm
          {
            OFFSET 4.585380 -0.000000 -0.000000
            CHANNELS 3 Zrotation Yrotation Xrotation
            JOINT LeftForeArm
            {
              OFFSET 2.689350 -0.000000 -0.000000
              CHANNELS 3 Zrotation Yrotation Xrotation
              JOINT LeftHand
              {
                OFFSET 0.585058 -0.000000 -0.000000
                CHANNELS 3 Zrotation Yrotation Xrotation
                JOINT LeftHandIndex1
                {
                  OFFSET 0.471689 -0.000000 -0.000000
                  CHANNELS 3 Zrotation Yrotation Xrotation
                  End Site
                  {
                    OFFSET 0 0 0
                  }
                }
              }
            }
          }
        }
        JOINT RightShoulder
        {
          OFFSET -2.950738 1.188427 0.314298
          CHANNELS 3 Zrotation Yrotation Xrotation
          JOINT RightArm
          {
            OFFSET -4.474500 -0.000000 -0.000000
            CHANNELS 3 Zrotation Yrotation Xrotation
            JOINT RightForeArm
            {
              OFFSET -2.938960 -0.000000 -0.000000
              CHANNELS 3 Zrotation Yrotation Xrotation
              JOINT RightHand
              {
                OFFSET -0.405092 -0.000000 -0.000000
                CHANNELS 3 Zrotation Yrotation Xrotation
                JOINT RightHandIndex1
                {
                  OFFSET -0.326596 -0.000000 -0.000000
                  CHANNELS 3 Zrotation Yrotation Xrotation
                  End Site
                  {
                    OFFSET 0 0 0
                  }
                }
              }
            }
          }
        }
      }
    }
  }
  JOINT LeftUpLeg
  {
    OFFSET 2.251771 -6.186694 0.000000
    CHANNELS 3 Zrotation Yrotation Xrotation
    JOINT LeftLeg
    {
      OFFSET 2.266012 -6.225823 0.000000
      CHANNELS 3 Zrotation Yrotation Xrotation
      JOINT LeftFoot
      {
        OFFSET 0.237014 -0.651191 2.158476
        CHANNELS 3 Zrotation Yrotation Xrotation
        JOINT LeftToeBase
        {
          OFFSET 0.000000 -0.000000 1.129490
          CHANNELS 3 Zrotation Yrotation Xrotation
          End Site
          {
            OFFSET 0 0 0
          }
        }
      }
    }
  }
  JOINT RightUpLeg
  {
    OFFSET -2.280357 -6.265234 0.000000
    CHANNELS 3 Zrotation Yrotation Xrotation
    JOINT RightLeg
    {
      OFFSET -2.254897 -6.195283 0.000000
      CHANNELS 3 Zrotation Yrotation Xrotation
      JOINT RightFoot
      {
        OFFSET -0.283752 -0.779600 2.231370
        CHANNELS 3 Zrotation Yrotation Xrotation
        JOINT RightToeBase
        {
          OFFSET -0.000000 -0.000000 1.178990
          CHANNELS 3 Zrotation Yrotation Xrotation
          End Site
          {
            OFFSET 0 0 0
          }
        }
      }
    }
  }
}
MOTION
Frames: 10
Frame Time: 0.00833333
1.876580 9.575940 0.878322 0.809247 -14.668100 8.339410 -19.085900 20.573700 -90.937700 0.000000 0.000000 108.692000 3.003210 0.000000 -25.370700 0.000000 0.000000 -8.096520 -22.733700 -52.522400 -46.975000 0.000000 0.000000 115.403000 28.217200 0.000000 -44.283100 0.000000 0.000000 -41.137000 -5.644120 -0.938352 33.213200 -1.589170 -3.598370 2.060010 2.813050 -1.294070 -14.614700 18.546000 11.195400 -8.740770 -4.196550 6.964850 7.916440 -0.000000 0.000000 0.000000 66.300700 -20.832100 35.867500 0.000000 0.000000 139.437000 8.428890 0.000000 -25.074500 0.000000 0.000000 7.125020 -0.000000 0.000000 0.000000 -69.439600 15.049700 6.119290 0.000000 0.000000 129.710000 -12.214600 0.000000 -10.893000 0.000000 0.000000 7.125020
1.880390 9.598310 0.872752 0.578138 -15.004300 8.339500 -18.532000 20.544900 -90.572100 0.000000 0.000000 108.575000 3.298160 0.000000 -25.348400 0.000000 0.000000 -8.194210 -22.095800 -52.668400 -47.162900 0.000000 0.000000 115.054000 28.441300 0.000000 -44.269100 0.000000 0.000000 -41.162300 -5.710900 -0.876499 33.277600 -1.642950 -3.558380 2.072500 2.774950 -1.274190 -14.629200 18.673800 11.266400 -8.677230 -4.214190 7.008340 7.861890 -0.000000 0.000000 0.000000 66.052900 -20.536300 35.790300 0.000000 0.000000 139.427000 8.385140 0.000000 -25.184800 0.000000 0.000000 7.125020 -0.000000 0.000000 0.000000 -70.039600 15.574000 4.730890 0.000000 0.000000 130.670000 -12.116900 0.000000 -11.313500 0.000000 0.000000 7.125020
1.881220 9.619500 0.865874 0.354110 -15.240400 8.332710 -18.005900 20.465800 -90.234600 0.000000 0.000000 108.439000 3.576750 0.000000 -25.305600 0.000000 0.000000 -8.373610 -21.569900 -52.732000 -47.252900 0.000000 0.000000 114.712000 28.742300 0.000000 -44.248000 0.000000 0.000000 -41.203200 -5.695960 -0.812717 33.317600 -1.701980 -3.484480 2.085910 2.673020 -1.244760 -14.640600 18.757300 11.279500 -8.601030 -4.232040 7.017080 7.792520 0.000000 0.000000 0.000000 65.860000 -20.320100 35.708200 0.000000 0.000000 139.393000 8.338630 0.000000 -25.270600 0.000000 0.000000 7.125020 0.000000 0.000000 0.000000 -70.746600 16.223000 3.301930 0.000000 0.000000 131.523000 -12.046200 0.000000 -11.820000 0.000000 0.000000 7.125020
1.879080 9.639420 0.857727 0.141791 -15.378500 8.321570 -17.515000 20.339600 -89.931900 0.000000 0.000000 108.283000 3.834830 0.000000 -25.246800 0.000000 0.000000 -8.621270 -21.173100 -52.716100 -47.236800 0.000000 0.000000 114.376000 29.181100 0.000000 -44.204300 0.000000 0.000000 -41.219400 -5.598800 -0.743846 33.329100 -1.763990 -3.371770 2.097560 2.507430 -1.203500 -14.650200 18.783900 11.235800 -8.516630 -4.248800 6.991830 7.711270 0.000000 0.000000 0.000000 65.730100 -20.195200 35.616700 0.000000 0.000000 139.345000 8.312510 0.000000 -25.311500 0.000000 0.000000 7.125020 0.000000 0.000000 0.000000 -71.552100 16.979200 1.868590 0.000000 0.000000 132.245000 -11.953100 0.000000 -12.322500 0.000000 0.000000 7.125020
1.873870 9.658710 0.847979 -0.042332 -15.423400 8.305950 -17.072600 20.162900 -89.659400 0.000000 0.000000 108.100000 4.067540 0.000000 -25.178200 0.000000 0.000000 -8.911780 -20.880900 -52.628900 -47.150300 0.000000 0.000000 114.051000 29.662100 0.000000 -44.158400 0.000000 0.000000 -41.250700 -5.441130 -0.664272 33.313400 -1.827930 -3.221120 2.106230 2.291220 -1.149410 -14.657600 18.739600 11.138100 -8.441310 -4.257600 6.932900 7.622420 -0.000000 0.000000 0.000000 65.644500 -20.196300 35.514600 0.000000 0.000000 139.295000 8.393440 0.000000 -25.340400 0.000000 0.000000 7.125020 -0.000000 0.000000 0.000000 -72.441900 17.823100 0.484622 0.000000 0.000000 132.809000 -11.833800 0.000000 -12.725200 0.000000 0.000000 7.125020
1.865630 9.677940 0.836505 -0.180555 -15.377200 8.287260 -16.696300 19.928400 -89.416100 0.000000 0.000000 107.881000 4.279010 0.000000 -25.101400 0.000000 0.000000 -9.255370 -20.700100 -52.510100 -46.996800 0.000000 0.000000 113.746000 30.158800 0.000000 -44.115700 0.000000 0.000000 -41.288900 -5.249330 -0.572945 33.266400 -1.894390 -3.040500 2.118710 2.040820 -1.084930 -14.650300 18.624400 11.001300 -8.414950 -4.252860 6.845660 7.539680 0.000000 0.000000 0.000000 65.599700 -20.296600 35.413000 0.000000 0.000000 139.253000 8.523060 0.000000 -25.321600 0.000000 0.000000 7.125020 0.000000 0.000000 0.000000 -73.399700 18.747200 -0.783709 0.000000 0.000000 133.187000 -11.701400 0.000000 -12.982800 0.000000 0.000000 7.125020
1.854310 9.697160 0.823038 -0.268733 -15.249400 8.269470 -16.390000 19.644200 -89.207000 0.000000 0.000000 107.624000 4.467860 0.000000 -25.017700 0.000000 0.000000 -9.666870 -20.593200 -52.354900 -46.808100 0.000000 0.000000 113.477000 30.575500 0.000000 -44.082200 0.000000 0.000000 -41.346100 -5.041420 -0.464436 33.193300 -1.960740 -2.829830 2.133880 1.768890 -1.008610 -14.629500 18.448900 10.829500 -8.447030 -4.235320 6.731610 7.466660 -0.000000 -0.000000 0.000000 65.578300 -20.511300 35.312500 0.000000 0.000000 139.230000 8.698980 0.000000 -25.283000 0.000000 0.000000 7.125020 -0.000000 -0.000000 0.000000 -74.393000 19.725000 -1.866480 0.000000 0.000000 133.342000 -11.603500 0.000000 -13.043600 0.000000 0.000000 7.125020
1.840110 9.717000 0.807409 -0.294621 -15.046000 8.251950 -16.165800 19.307300 -89.027000 0.000000 0.000000 107.321000 4.643690 0.000000 -24.925100 0.000000 0.000000 -10.142700 -20.552900 -52.195500 -46.594700 0.000000 0.000000 113.257000 30.853800 0.000000 -44.058400 0.000000 0.000000 -41.415500 -4.850420 -0.336304 33.101600 -2.021590 -2.597890 2.152530 1.502820 -0.922025 -14.594600 18.200500 10.633000 -8.564200 -4.193160 6.595190 7.413050 -0.000000 0.000000 0.000000 65.571700 -20.823700 35.209700 0.000000 0.000000 139.235000 8.893580 0.000000 -25.239800 0.000000 0.000000 7.125020 -0.000000 0.000000 0.000000 -75.387700 20.743300 -2.705240 0.000000 0.000000 133.254000 -11.558400 0.000000 -12.887500 0.000000 0.000000 7.125020
1.823400 9.738040 0.789554 -0.254988 -14.775200 8.236190 -16.029200 18.919800 -88.872400 0.000000 0.000000 106.968000 4.822310 0.000000 -24.828100 0.000000 0.000000 -10.712900 -20.560900 -52.059000 -46.374800 0.000000 0.000000 113.092000 30.948500 0.000000 -44.045300 0.000000 0.000000 -41.496200 -4.687370 -0.185546 32.997900 -2.075020 -2.345220 2.171180 1.251200 -0.824309 -14.551500 17.875200 10.408400 -8.750020 -4.124330 6.435870 7.368810 0.000000 -0.000000 0.000000 65.596700 -21.199300 35.103700 0.000000 0.000000 139.263000 8.993630 0.000000 -25.166100 0.000000 0.000000 7.125020 0.000000 -0.000000 0.000000 -76.353000 21.779700 -3.262260 0.000000 0.000000 132.919000 -11.571500 0.000000 -12.552900 0.000000 0.000000 7.125020
1.804730 9.760920 0.769458 -0.154193 -14.444800 8.223210 -15.976100 18.484300 -88.736900 0.000000 0.000000 106.562000 5.011780 0.000000 -24.726800 0.000000 0.000000 -11.355200 -20.595700 -51.949900 -46.162000 0.000000 0.000000 112.982000 30.840900 0.000000 -44.031500 0.000000 0.000000 -41.577300 -4.553950 -0.011383 32.889800 -2.116210 -2.071180 2.188350 1.020200 -0.714736 -14.505200 17.475600 10.157700 -8.989730 -4.032730 6.256820 7.332090 -0.000000 -0.000000 0.000000 65.635600 -21.667900 34.985700 0.000000 0.000000 139.323000 9.074550 0.000000 -25.128000 0.000000 0.000000 7.125020 -0.000000 -0.000000 0.000000 -77.248100 22.798200 -3.490140 0.000000 0.000000 132.332000 -11.597900 0.000000 -12.058900 0.000000 0.000000 7.125020
